<svg xmlns="http://www.w3.org/2000/svg" xml:space="preserve" viewBox="0 0 512 512"><path fill="red" d="M1 476c0-145.69 0-291.381.323-437.248.686-.512 1.253-.784 1.383-1.195C8.204 20.133 19.595 8.57 36.973 2.87 37.467 2.707 37.664 1.643 38 1c145.69 0 291.382 0 437.248.323.512.686.784 1.253 1.195 1.383 17.424 5.498 28.987 16.889 34.688 34.267.162.494 1.226.691 1.869 1.027 0 145.69 0 291.382-.323 437.248-.686.512-1.253.784-1.383 1.195-5.498 17.425-16.889 28.987-34.267 34.688-.494.162-.691 1.226-1.027 1.869-145.69 0-291.381 0-437.248-.323-.512-.686-.784-1.253-1.195-1.383-17.425-5.498-28.987-16.889-34.688-34.267-.162-.494-1.226-.691-1.869-1.027m179.472-55.298h11.717V293.935c20.357 0 40.315-.072 60.27.158 1.362.015 3.164 2.037 3.978 3.548 21.442 39.792 42.815 79.622 64.062 119.519 1.494 2.806 3.2 3.634 6.21 3.603 13.66-.14 27.324-.061 40.986-.061h11.091c-1.091-5.447-.96-10.598-3.09-14.519-20.481-37.668-41.346-75.126-62.09-112.65-2.141-3.871-4.215-7.779-6.386-11.792 2.105-1.09 3.728-1.914 5.337-2.768 21.741-11.536 37.57-28.36 45.864-51.764 6.275-17.707 6.65-35.913 3.513-54.213-5.15-30.046-21.007-52.389-48.635-65.867-19.71-9.616-40.868-12.845-62.514-12.996-36.653-.255-73.309-.114-109.963-.122-1.263 0-2.527.197-3.567.284v326.407h43.217z"/><path fill="#FFFEFE" d="M179.977 420.702h-42.722V94.295c1.04-.087 2.304-.284 3.567-.284 36.654.008 73.31-.133 109.963.122 21.646.151 42.804 3.38 62.514 12.996 27.628 13.478 43.485 35.821 48.635 65.867 3.136 18.3 2.762 36.506-3.513 54.213-8.294 23.404-24.123 40.228-45.864 51.764-1.609.854-3.232 1.677-5.337 2.768 2.17 4.013 4.245 7.92 6.385 11.792 20.745 37.524 41.61 74.982 62.09 112.65 2.132 3.92 2 9.072 3.091 14.519h-11.09c-13.663 0-27.326-.08-40.987.061-3.01.031-4.716-.797-6.21-3.603-21.247-39.897-42.62-79.727-64.062-119.519-.814-1.51-2.616-3.533-3.979-3.548-19.954-.23-39.912-.158-60.27-.158v126.767h-12.211m127.205-213.237c2.454-10.446 1.725-20.752-.975-31.077-3.735-14.283-12.492-24.304-26.194-29.114-8.035-2.82-16.747-4.726-25.232-5.05-19.958-.765-39.963-.337-59.949-.378-.787-.002-1.575.14-2.456.223V245.89c22.6 0 44.975 1.17 67.17-.32 23.471-1.576 40.846-13.169 47.636-38.106z"/><path fill="#FF0101" d="M307.118 207.879c-6.726 24.523-24.1 36.116-47.571 37.692-22.196 1.49-44.57.32-67.171.32V142.069c.881-.084 1.669-.225 2.456-.223 19.986.04 39.99-.387 59.95.377 8.484.325 17.196 2.23 25.231 5.051 13.702 4.81 22.459 14.83 26.194 29.114 2.7 10.325 3.43 20.63.91 31.49z"/></svg>